
<svg width="220" height="50" viewBox="0 0 220 50" fill="none" xmlns="http://www.w3.org/2000/svg">
  <circle cx="25" cy="25" r="22" fill="#0ea5e9" />
  <path d="M25 10C27.5 15 35 18 35 25C35 32 30.5 38 25 38C19.5 38 15 32 15 25C15 18 22.5 15 25 10Z" fill="white" />
  <path d="M25 15C26.5 18 31 20 31 24.5C31 29 28 33 25 33C22 33 19 29 19 24.5C19 20 23.5 18 25 15Z" fill="#0ea5e9" opacity="0.6" />
  <path d="M60 33H55.54V18.2H60V33ZM55.26 13.9C55.26 13.3 55.46 12.82 55.86 12.46C56.26 12.08 56.8 11.9 57.48 11.9C58.16 11.9 58.7 12.08 59.1 12.46C59.5 12.82 59.7 13.3 59.7 13.9C59.7 14.5 59.5 14.98 59.1 15.36C58.7 15.72 58.16 15.9 57.48 15.9C56.8 15.9 56.26 15.72 55.86 15.36C55.46 14.98 55.26 14.5 55.26 13.9ZM72.6873 33.24C70.8073 33.24 69.2673 32.9 68.0673 32.22C66.8873 31.54 66.0273 30.58 65.4873 29.34C64.9473 28.1 64.6773 26.64 64.6773 24.96V24.6C64.6773 22.92 64.9473 21.46 65.4873 20.22C66.0273 18.98 66.8873 18.02 68.0673 17.34C69.2673 16.66 70.8073 16.32 72.6873 16.32C74.5673 16.32 76.1073 16.66 77.3073 17.34C78.5073 18.02 79.3673 18.98 79.8873 20.22C80.4273 21.46 80.6973 22.92 80.6973 24.6V24.96C80.6973 26.64 80.4273 28.1 79.8873 29.34C79.3673 30.58 78.5073 31.54 77.3073 32.22C76.1073 32.9 74.5673 33.24 72.6873 33.24ZM72.6873 29.4C73.5273 29.4 74.1673 29.16 74.6073 28.68C75.0473 28.18 75.3273 27.54 75.4473 26.76C75.5873 25.98 75.6573 25.12 75.6573 24.18C75.6573 23.34 75.5873 22.56 75.4473 21.84C75.3273 21.12 75.0473 20.52 74.6073 20.04C74.1673 19.56 73.5273 19.32 72.6873 19.32C71.8673 19.32 71.2273 19.56 70.7673 20.04C70.3273 20.52 70.0473 21.12 69.9273 21.84C69.8073 22.56 69.7473 23.34 69.7473 24.18C69.7473 25.12 69.8073 25.98 69.9273 26.76C70.0473 27.54 70.3273 28.18 70.7673 28.68C71.2273 29.16 71.8673 29.4 72.6873 29.4ZM92.7477 33.24C90.9677 33.24 89.5277 32.94 88.4277 32.34C87.3277 31.74 86.4877 30.88 85.9077 29.76C85.3477 28.64 85.0677 27.28 85.0677 25.68V16.56H90.0677V24.9C90.0677 25.94 90.2677 26.7 90.6677 27.18C91.0877 27.66 91.7077 27.9 92.5277 27.9C93.3877 27.9 94.0477 27.64 94.5077 27.12C94.9677 26.6 95.1977 25.78 95.1977 24.66V16.56H100.198V33H95.5577L95.3777 30.06C94.9777 31.02 94.3677 31.8 93.5477 32.4C92.7477 32.96 91.8077 33.24 90.7277 33.24H92.7477ZM112.878 33.24C111.198 33.24 109.758 32.94 108.558 32.34C107.358 31.74 106.438 30.88 105.798 29.76C105.158 28.64 104.838 27.28 104.838 25.68V16.56H109.838V24.9C109.838 25.94 110.038 26.7 110.438 27.18C110.858 27.66 111.478 27.9 112.298 27.9C113.158 27.9 113.818 27.64 114.278 27.12C114.738 26.6 114.968 25.78 114.968 24.66V16.56H119.968V33H115.328L115.148 30.06C114.748 31.02 114.138 31.8 113.318 32.4C112.518 32.96 111.578 33.24 110.498 33.24H112.878ZM132.136 33.24C130.536 33.24 129.136 32.96 127.936 32.4C126.736 31.82 125.796 31 125.116 29.94C124.456 28.86 124.116 27.56 124.096 26.04H129.036C129.116 26.76 129.316 27.3 129.636 27.66C129.956 28.02 130.456 28.2 131.136 28.2C131.716 28.2 132.136 28.08 132.396 27.84C132.676 27.6 132.816 27.3 132.816 26.94C132.816 26.5 132.616 26.14 132.216 25.86C131.836 25.58 131.216 25.32 130.356 25.08L129.036 24.72C127.436 24.26 126.216 23.62 125.376 22.8C124.556 21.96 124.136 20.88 124.136 19.56C124.136 18.4 124.496 17.38 125.216 16.5C125.936 15.62 126.916 14.92 128.156 14.4C129.416 13.88 130.836 13.62 132.416 13.62C134.216 13.62 135.636 13.88 136.676 14.4C137.716 14.92 138.436 15.62 138.836 16.5C139.256 17.38 139.456 18.36 139.436 19.44H134.496C134.476 18.86 134.316 18.4 134.016 18.06C133.716 17.7 133.256 17.52 132.636 17.52C132.196 17.52 131.856 17.64 131.616 17.88C131.376 18.1 131.256 18.42 131.256 18.84C131.256 19.16 131.336 19.44 131.496 19.68C131.676 19.92 131.936 20.12 132.276 20.28C132.616 20.44 133.036 20.6 133.536 20.76L134.976 21.18C136.336 21.54 137.436 22.06 138.276 22.74C139.116 23.4 139.536 24.34 139.536 25.56C139.536 26.62 139.176 27.56 138.456 28.38C137.756 29.18 136.776 29.8 135.516 30.24C134.276 30.66 132.836 30.9 131.196 30.96L132.136 33.24ZM152.31 33.24C150.51 33.24 148.97 32.9 147.69 32.22C146.43 31.54 145.47 30.58 144.81 29.34C144.15 28.1 143.82 26.64 143.82 24.96V24.6C143.82 22.92 144.15 21.46 144.81 20.22C145.47 18.98 146.43 18.02 147.69 17.34C148.97 16.66 150.51 16.32 152.31 16.32C153.61 16.32 154.73 16.48 155.67 16.8C156.61 17.12 157.37 17.6 157.95 18.24C158.55 18.86 158.97 19.66 159.21 20.64L154.63 21.72C154.47 20.94 154.19 20.38 153.79 20.04C153.39 19.7 152.95 19.52 152.47 19.5C151.63 19.5 150.99 19.74 150.55 20.22C150.11 20.7 149.83 21.34 149.71 22.14C149.59 22.94 149.53 23.86 149.53 24.9C149.53 25.84 149.59 26.72 149.71 27.54C149.83 28.34 150.11 29.02 150.55 29.58C150.99 30.12 151.63 30.4 152.47 30.42C152.93 30.42 153.33 30.3 153.67 30.06C154.03 29.82 154.27 29.42 154.39 28.86L159.27 29.88C158.89 31.06 158.05 32 156.75 32.7C155.47 33.4 154 33.24 152.31 33.24ZM165.929 33H160.989V16.56H165.749L165.929 19.38C166.309 18.42 166.869 17.66 167.609 17.1C168.349 16.54 169.249 16.26 170.309 16.26C170.749 16.26 171.189 16.3 171.629 16.38C172.089 16.46 172.469 16.6 172.769 16.8L171.689 20.82C171.369 20.66 171.029 20.54 170.669 20.46C170.309 20.38 169.949 20.34 169.589 20.34C168.669 20.34 167.969 20.64 167.489 21.24C167.029 21.84 166.789 22.66 166.769 23.7V33H165.929ZM183.534 33.24C181.654 33.24 180.114 32.9 178.914 32.22C177.734 31.54 176.874 30.58 176.334 29.34C175.794 28.1 175.524 26.64 175.524 24.96V24.6C175.524 22.92 175.794 21.46 176.334 20.22C176.874 18.98 177.734 18.02 178.914 17.34C180.114 16.66 181.654 16.32 183.534 16.32C185.414 16.32 186.954 16.66 188.154 17.34C189.354 18.02 190.214 18.98 190.734 20.22C191.274 21.46 191.544 22.92 191.544 24.6V24.96C191.544 26.64 191.274 28.1 190.734 29.34C190.214 30.58 189.354 31.54 188.154 32.22C186.954 32.9 185.414 33.24 183.534 33.24ZM183.534 29.4C184.374 29.4 185.014 29.16 185.454 28.68C185.894 28.18 186.174 27.54 186.294 26.76C186.434 25.98 186.504 25.12 186.504 24.18C186.504 23.34 186.434 22.56 186.294 21.84C186.174 21.12 185.894 20.52 185.454 20.04C185.014 19.56 184.374 19.32 183.534 19.32C182.714 19.32 182.074 19.56 181.614 20.04C181.174 20.52 180.894 21.12 180.774 21.84C180.654 22.56 180.594 23.34 180.594 24.18C180.594 25.12 180.654 25.98 180.774 26.76C180.894 27.54 181.174 28.18 181.614 28.68C182.074 29.16 182.714 29.4 183.534 29.4Z" fill="#0ea5e9"/>
</svg>
